<svg xmlns="http://www.w3.org/2000/svg" xmlns:xlink="http://www.w3.org/1999/xlink" width="1800" zoomAndPan="magnify" viewBox="0 0 1350 299.999988" height="400" preserveAspectRatio="xMidYMid meet" version="1.0"><defs><g></g><clipPath id="85441abe11"><rect x="0" width="1350" y="0" height="258"></rect></clipPath></defs><g transform="matrix(1, 0, 0, 1, 0, 10)"><g clip-path="url(#85441abe11)"><g fill="#f5fafd" fill-opacity="1"><g transform="translate(0.174808, 209.912581)"><g><path d="M 30.5 0 L 2.1875 0 L 48.0625 -128.453125 L 78.90625 -128.453125 L 124.265625 0 L 95.078125 0 L 63.359375 -99.96875 L 63 -99.96875 Z M 30.5 0 "></path></g></g><g transform="translate(126.62922, 209.912581)"><g><path d="M 115.703125 0 L 83.015625 0 L 58.640625 -43.875 L 32.6875 0 L 1.390625 0 L 42.90625 -65.71875 L 3.671875 -128.453125 L 35.734375 -128.453125 L 58.640625 -86.953125 L 82.0625 -128.453125 L 113.078125 -128.453125 L 73.84375 -66.765625 Z M 115.703125 0 "></path></g></g><g transform="translate(243.994994, 209.912581)"><g><path d="M 39.9375 0 L 13.109375 0 L 13.109375 -128.453125 L 39.9375 -128.453125 Z M 39.9375 0 "></path></g></g><g transform="translate(297.041178, 209.912581)"><g><path d="M 30.5 0 L 2.1875 0 L 48.0625 -128.453125 L 78.90625 -128.453125 L 124.265625 0 L 95.078125 0 L 63.359375 -99.96875 L 63 -99.96875 Z M 30.5 0 "></path></g></g><g transform="translate(423.49559, 209.912581)"><g><path d="M 39.9375 -23.25 L 103.8125 -23.25 L 103.8125 0 L 13.109375 0 L 13.109375 -128.453125 L 39.9375 -128.453125 Z M 39.9375 -23.25 "></path></g></g></g><g fill="#f5fafd" fill-opacity="1"><g transform="translate(530.374473, 209.912581)"><g></g></g></g><g fill="#f5fafd" fill-opacity="1"><g transform="translate(578.439384, 209.912581)"><g></g></g></g><g fill="#f5fafd" fill-opacity="1"><g transform="translate(622.134757, 209.912581)"><g><path d="M 90.1875 -90.875 C 89.832031 -99.03125 86.785156 -105.425781 81.046875 -110.0625 C 75.304688 -114.695312 67.75 -117.015625 58.375 -117.015625 C 48.9375 -117.015625 41.679688 -115.078125 36.609375 -111.203125 C 31.546875 -107.328125 29.015625 -101.75 29.015625 -94.46875 C 29.015625 -90.5625 30.117188 -87.207031 32.328125 -84.40625 C 34.546875 -81.613281 38.507812 -79.550781 44.21875 -78.21875 L 80.921875 -69.828125 C 90.828125 -67.671875 98.164062 -63.578125 102.9375 -57.546875 C 107.71875 -51.515625 110.109375 -44.160156 110.109375 -35.484375 C 110.109375 -22.773438 105.445312 -13.113281 96.125 -6.5 C 86.800781 0.101562 74.679688 3.40625 59.765625 3.40625 C 48.410156 3.40625 39.453125 1.953125 32.890625 -0.953125 C 26.335938 -3.867188 20.523438 -8.5 15.453125 -14.84375 C 10.390625 -21.195312 7.859375 -30.085938 7.859375 -41.515625 L 24.125 -41.515625 C 24.125 -31.953125 27.296875 -24.550781 33.640625 -19.3125 C 39.992188 -14.070312 48.644531 -11.453125 59.59375 -11.453125 C 70.195312 -11.453125 78.453125 -13.328125 84.359375 -17.078125 C 90.273438 -20.835938 93.234375 -26.1875 93.234375 -33.125 C 93.234375 -39.414062 91.472656 -44.117188 87.953125 -47.234375 C 84.429688 -50.347656 77.539062 -53.097656 67.28125 -55.484375 L 39.59375 -61.953125 C 30.382812 -64.054688 23.503906 -67.710938 18.953125 -72.921875 C 14.410156 -78.140625 12.140625 -84.5625 12.140625 -92.1875 C 12.140625 -103.726562 16.03125 -113.222656 23.8125 -120.671875 C 31.59375 -128.128906 42.441406 -131.859375 56.359375 -131.859375 C 72.085938 -131.859375 84.21875 -128.582031 92.75 -122.03125 C 101.289062 -115.476562 105.882812 -105.09375 106.53125 -90.875 Z M 90.1875 -90.875 "></path></g></g><g transform="translate(740.636612, 209.912581)"><g><path d="M 109.328125 0 L 14.5 0 L 14.5 -128.453125 L 108.09375 -128.453125 L 108.09375 -113.078125 L 31.890625 -113.078125 L 31.890625 -73.75 L 102.15625 -73.75 L 102.15625 -58.375 L 31.890625 -58.375 L 31.890625 -15.375 L 109.328125 -15.375 Z M 109.328125 0 "></path></g></g><g transform="translate(856.953696, 209.912581)"><g><path d="M 78.734375 -52.78125 L 59.765625 -109.328125 L 59.421875 -109.328125 L 38.796875 -52.78125 Z M 33.46875 -37.40625 L 20.015625 0 L 2.1875 0 L 50.515625 -128.453125 L 70.171875 -128.453125 L 116.65625 0 L 97.703125 0 L 85.03125 -37.40625 Z M 33.46875 -37.40625 "></path></g></g><g transform="translate(976.329457, 209.912581)"><g><path d="M 31.890625 -70 L 72.09375 -70 C 81.414062 -70 88.097656 -71.90625 92.140625 -75.71875 C 96.191406 -79.53125 98.21875 -85.019531 98.21875 -92.1875 C 98.21875 -98.71875 96.46875 -103.921875 92.96875 -107.796875 C 89.476562 -111.671875 83.484375 -113.609375 74.984375 -113.609375 L 31.890625 -113.609375 Z M 31.890625 0 L 14.5 0 L 14.5 -128.453125 L 73.921875 -128.453125 C 87.734375 -128.453125 98.191406 -125.507812 105.296875 -119.625 C 112.410156 -113.75 115.96875 -105.1875 115.96875 -93.9375 C 115.96875 -86.539062 114.539062 -80.363281 111.6875 -75.40625 C 108.832031 -70.457031 104.34375 -66.382812 98.21875 -63.1875 C 103.46875 -61.257812 107.253906 -58.5625 109.578125 -55.09375 C 111.910156 -51.625 113.253906 -46.25 113.609375 -38.96875 L 114.734375 -15.03125 C 114.847656 -11.070312 115.472656 -8.289062 116.609375 -6.6875 C 117.753906 -5.082031 119.34375 -3.816406 121.375 -2.890625 L 121.375 0 L 99.890625 0 C 98.773438 -3.207031 97.984375 -8.070312 97.515625 -14.59375 C 97.054688 -21.113281 96.828125 -27 96.828125 -32.25 C 96.828125 -34.863281 96.59375 -37.539062 96.125 -40.28125 C 95.65625 -43.019531 94.632812 -45.492188 93.0625 -47.703125 C 91.488281 -49.921875 89.1875 -51.710938 86.15625 -53.078125 C 83.132812 -54.453125 79.054688 -55.140625 73.921875 -55.140625 L 31.890625 -55.140625 Z M 31.890625 0 "></path></g></g></g><g fill="#f5fafd" fill-opacity="1"><g transform="translate(1102.346914, 209.912581)"><g><path d="M 103.8125 -89.828125 C 101.894531 -98.566406 97.863281 -105.191406 91.71875 -109.703125 C 85.570312 -114.222656 77.601562 -116.484375 67.8125 -116.484375 C 55.164062 -116.484375 45 -111.894531 37.3125 -102.71875 C 29.625 -93.539062 25.78125 -81.148438 25.78125 -65.546875 C 25.78125 -47.484375 29.421875 -34.035156 36.703125 -25.203125 C 43.984375 -16.378906 54.53125 -11.96875 68.34375 -11.96875 C 77.425781 -11.96875 85.242188 -14.984375 91.796875 -21.015625 C 98.347656 -27.046875 102.765625 -35.800781 105.046875 -47.28125 L 121.90625 -47.28125 C 119.632812 -30.789062 113.367188 -18.21875 103.109375 -9.5625 C 92.859375 -0.914062 80.394531 3.40625 65.71875 3.40625 C 48.175781 3.40625 34.144531 -2.617188 23.625 -14.671875 C 13.113281 -26.734375 7.859375 -43.484375 7.859375 -64.921875 C 7.859375 -85.609375 13.347656 -101.9375 24.328125 -113.90625 C 35.316406 -125.875 49.8125 -131.859375 67.8125 -131.859375 C 82.726562 -131.859375 94.816406 -128.015625 104.078125 -120.328125 C 113.335938 -112.640625 118.84375 -102.472656 120.59375 -89.828125 Z M 103.8125 -89.828125 "></path></g></g><g transform="translate(1231.772611, 209.912581)"><g><path d="M 116.140625 0 L 98.75 0 L 98.75 -59.953125 L 31.640625 -59.953125 L 31.640625 0 L 14.5 0 L 14.5 -128.453125 L 31.640625 -128.453125 L 31.640625 -75.328125 L 98.75 -75.328125 L 98.75 -128.453125 L 116.140625 -128.453125 Z M 116.140625 0 "></path></g></g></g></g></g><path stroke-linecap="butt" transform="matrix(0, 0.75, -0.75, 0, 587.840187, 1.412109)" fill="none" stroke-linejoin="miter" d="M -0.00260403 12.000459 L 396.237012 12.000459 " stroke="#3bedb7" stroke-width="24" stroke-opacity="1" stroke-miterlimit="4"></path></svg>